REM DIRINDEX 1\2\4\8,1\2\4\9,1\2\4\10,1\2\5\11,1\2\5\12,1\2\5\13,1\2\5\14,1\2\5\15,1\3\6\16,1\3\6\17,1\3\6\18,1\3\7\19,1\3\7\20,1\3\7\21,1\3\7\22,1\3\7\23
REM DIRNAME "folder01","folder02","folder03","folder04","folder05","folder06","folder07","folder08","folder09","folder10","folder11","folder12","folder13","folder14","folder15","folder16","folder17","folder18","folder19","folder20","folder21","folder22","folder23"
TITLE ""
FILE "LR_black_phrase_02.mp3" MP3
  TRACK 01 AUDIO
    TITLE "0:"
    INDEX 01 00:00:00
  TRACK 02 AUDIO
    TITLE "11:cjc171_03501"
    INDEX 01 00:00:18
  TRACK 03 AUDIO
    TITLE "0:"
    INDEX 01 00:01:43
  TRACK 04 AUDIO
    TITLE "12:cjc171_03502"
    INDEX 01 00:02:07
  TRACK 05 AUDIO
    TITLE "0:"
    INDEX 01 00:04:30
  TRACK 06 AUDIO
    TITLE "13:cjc171_03503"
    INDEX 01 00:05:29
  TRACK 07 AUDIO
    TITLE "0:"
    INDEX 01 00:07:12
  TRACK 08 AUDIO
    TITLE "14:cjc171_03504"
    INDEX 01 00:07:51
  TRACK 09 AUDIO
    TITLE "0:"
    INDEX 01 00:09:70
  TRACK 10 AUDIO
    TITLE "15:cjc171_03505"
    INDEX 01 00:10:22
  TRACK 11 AUDIO
    TITLE "0:"
    INDEX 01 00:12:39
  TRACK 12 AUDIO
    TITLE "11:cjc171_03506"
    INDEX 01 00:13:33
  TRACK 13 AUDIO
    TITLE "0:"
    INDEX 01 00:14:40
  TRACK 14 AUDIO
    TITLE "12:cjc171_03507"
    INDEX 01 00:15:06
  TRACK 15 AUDIO
    TITLE "0:"
    INDEX 01 00:16:43
  TRACK 16 AUDIO
    TITLE "13:cjc171_03508"
    INDEX 01 00:17:42
  TRACK 17 AUDIO
    TITLE "0:"
    INDEX 01 00:20:09
  TRACK 18 AUDIO
    TITLE "14:cjc171_03509"
    INDEX 01 00:20:50
  TRACK 19 AUDIO
    TITLE "0:"
    INDEX 01 00:22:51
  TRACK 20 AUDIO
    TITLE "15:cjc171_03510"
    INDEX 01 00:23:03
  TRACK 21 AUDIO
    TITLE "0:"
    INDEX 01 00:25:06
  TRACK 22 AUDIO
    TITLE "11:cjc171_03511"
    INDEX 01 00:26:10
  TRACK 23 AUDIO
    TITLE "0:"
    INDEX 01 00:27:37
  TRACK 24 AUDIO
    TITLE "12:cjc171_03512"
    INDEX 01 00:28:03
  TRACK 25 AUDIO
    TITLE "0:"
    INDEX 01 00:30:70
  TRACK 26 AUDIO
    TITLE "13:cjc171_03513"
    INDEX 01 00:31:70
  TRACK 27 AUDIO
    TITLE "0:"
    INDEX 01 00:34:07
  TRACK 28 AUDIO
    TITLE "14:cjc171_03514"
    INDEX 01 00:34:44
  TRACK 29 AUDIO
    TITLE "0:"
    INDEX 01 00:36:57
  TRACK 30 AUDIO
    TITLE "15:cjc171_03515"
    INDEX 01 00:37:11
  TRACK 31 AUDIO
    TITLE "0:"
    INDEX 01 00:39:22
  TRACK 32 AUDIO
    TITLE "11:cjc171_03516"
    INDEX 01 00:40:29
  TRACK 33 AUDIO
    TITLE "0:"
    INDEX 01 00:41:48
  TRACK 34 AUDIO
    TITLE "12:cjc171_03517"
    INDEX 01 00:42:13
  TRACK 35 AUDIO
    TITLE "0:"
    INDEX 01 00:45:13
  TRACK 36 AUDIO
    TITLE "13:cjc171_03518"
    INDEX 01 00:46:12
  TRACK 37 AUDIO
    TITLE "0:"
    INDEX 01 00:49:09
  TRACK 38 AUDIO
    TITLE "14:cjc171_03519"
    INDEX 01 00:49:48
  TRACK 39 AUDIO
    TITLE "0:"
    INDEX 01 00:52:05
  TRACK 40 AUDIO
    TITLE "15:cjc171_03520"
    INDEX 01 00:52:27
  TRACK 41 AUDIO
    TITLE "0:"
    INDEX 01 00:54:61
  TRACK 42 AUDIO
    TITLE "11:cjc171_03521"
    INDEX 01 00:55:58
  TRACK 43 AUDIO
    TITLE "0:"
    INDEX 01 00:56:73
  TRACK 44 AUDIO
    TITLE "12:cjc171_03522"
    INDEX 01 00:57:40
  TRACK 45 AUDIO
    TITLE "0:"
    INDEX 01 01:00:18
  TRACK 46 AUDIO
    TITLE "13:cjc171_03523"
    INDEX 01 01:01:18
  TRACK 47 AUDIO
    TITLE "0:"
    INDEX 01 01:03:05
  TRACK 48 AUDIO
    TITLE "14:cjc171_03524"
    INDEX 01 01:03:44
  TRACK 49 AUDIO
    TITLE "0:"
    INDEX 01 01:05:25
  TRACK 50 AUDIO
    TITLE "15:cjc171_03525"
    INDEX 01 01:05:55
  TRACK 51 AUDIO
    TITLE "0:"
    INDEX 01 01:07:36
  TRACK 52 AUDIO
    TITLE "11:cjc171_03526"
    INDEX 01 01:08:39
  TRACK 53 AUDIO
    TITLE "0:"
    INDEX 01 01:09:60
  TRACK 54 AUDIO
    TITLE "12:cjc171_03527"
    INDEX 01 01:10:23
  TRACK 55 AUDIO
    TITLE "0:"
    INDEX 01 01:11:61
  TRACK 56 AUDIO
    TITLE "13:cjc171_03528"
    INDEX 01 01:12:59
  TRACK 57 AUDIO
    TITLE "0:"
    INDEX 01 01:14:67
  TRACK 58 AUDIO
    TITLE "14:cjc171_03529"
    INDEX 01 01:15:30
  TRACK 59 AUDIO
    TITLE "0:"
    INDEX 01 01:17:19
  TRACK 60 AUDIO
    TITLE "15:cjc171_03530"
    INDEX 01 01:17:46
  TRACK 61 AUDIO
    TITLE "0:"
    INDEX 01 01:19:37
  TRACK 62 AUDIO
    TITLE "11:cjc171_03531"
    INDEX 01 01:20:41
  TRACK 63 AUDIO
    TITLE "0:"
    INDEX 01 01:21:58
  TRACK 64 AUDIO
    TITLE "12:cjc171_03532"
    INDEX 01 01:22:22
  TRACK 65 AUDIO
    TITLE "0:"
    INDEX 01 01:24:37
  TRACK 66 AUDIO
    TITLE "13:cjc171_03533"
    INDEX 01 01:25:30
  TRACK 67 AUDIO
    TITLE "0:"
    INDEX 01 01:26:73
  TRACK 68 AUDIO
    TITLE "14:cjc171_03534"
    INDEX 01 01:27:35
  TRACK 69 AUDIO
    TITLE "0:"
    INDEX 01 01:29:34
  TRACK 70 AUDIO
    TITLE "15:cjc171_03535"
    INDEX 01 01:29:65
  TRACK 71 AUDIO
    TITLE "0:"
    INDEX 01 01:31:64
  TRACK 72 AUDIO
    TITLE "11:cjc171_03536"
    INDEX 01 01:32:69
  TRACK 73 AUDIO
    TITLE "0:"
    INDEX 01 01:34:19
  TRACK 74 AUDIO
    TITLE "12:cjc171_03537"
    INDEX 01 01:34:56
  TRACK 75 AUDIO
    TITLE "0:"
    INDEX 01 01:37:10
  TRACK 76 AUDIO
    TITLE "13:cjc171_03538"
    INDEX 01 01:38:09
  TRACK 77 AUDIO
    TITLE "0:"
    INDEX 01 01:40:45
  TRACK 78 AUDIO
    TITLE "14:cjc171_03539"
    INDEX 01 01:41:10
  TRACK 79 AUDIO
    TITLE "0:"
    INDEX 01 01:43:48
  TRACK 80 AUDIO
    TITLE "15:cjc171_03540"
    INDEX 01 01:44:02
  TRACK 81 AUDIO
    TITLE "0:"
    INDEX 01 01:46:36
  TRACK 82 AUDIO
    TITLE "11:cjc171_03541"
    INDEX 01 01:47:39
  TRACK 83 AUDIO
    TITLE "0:"
    INDEX 01 01:48:57
  TRACK 84 AUDIO
    TITLE "12:cjc171_03542"
    INDEX 01 01:49:23
  TRACK 85 AUDIO
    TITLE "0:"
    INDEX 01 01:51:45
  TRACK 86 AUDIO
    TITLE "13:cjc171_03543"
    INDEX 01 01:52:49
  TRACK 87 AUDIO
    TITLE "0:"
    INDEX 01 01:54:32
  TRACK 88 AUDIO
    TITLE "14:cjc171_03544"
    INDEX 01 01:54:69
  TRACK 89 AUDIO
    TITLE "0:"
    INDEX 01 01:57:01
  TRACK 90 AUDIO
    TITLE "15:cjc171_03545"
    INDEX 01 01:57:30
  TRACK 91 AUDIO
    TITLE "0:"
    INDEX 01 01:59:35
  TRACK 92 AUDIO
    TITLE "11:cjc171_03546"
    INDEX 01 02:00:40
  TRACK 93 AUDIO
    TITLE "0:"
    INDEX 01 02:01:65
  TRACK 94 AUDIO
    TITLE "12:cjc171_03547"
    INDEX 01 02:02:29
  TRACK 95 AUDIO
    TITLE "0:"
    INDEX 01 02:03:52
  TRACK 96 AUDIO
    TITLE "13:cjc171_03548"
    INDEX 01 02:04:50
  TRACK 97 AUDIO
    TITLE "0:"
    INDEX 01 02:07:25
  TRACK 98 AUDIO
    TITLE "14:cjc171_03549"
    INDEX 01 02:07:64
  TRACK 99 AUDIO
    TITLE "0:"
    INDEX 01 02:10:33
  TRACK 100 AUDIO
    TITLE "15:cjc171_03550"
    INDEX 01 02:10:60
  TRACK 101 AUDIO
    TITLE "0:"
    INDEX 01 02:13:27
  TRACK 102 AUDIO
    TITLE "11:cjc171_03551"
    INDEX 01 02:14:29
  TRACK 103 AUDIO
    TITLE "0:"
    INDEX 01 02:15:42
  TRACK 104 AUDIO
    TITLE "12:cjc171_03552"
    INDEX 01 02:16:18
  TRACK 105 AUDIO
    TITLE "0:"
    INDEX 01 02:17:50
  TRACK 106 AUDIO
    TITLE "13:cjc171_03553"
    INDEX 01 02:18:50
  TRACK 107 AUDIO
    TITLE "0:"
    INDEX 01 02:20:43
  TRACK 108 AUDIO
    TITLE "14:cjc171_03554"
    INDEX 01 02:21:11
  TRACK 109 AUDIO
    TITLE "0:"
    INDEX 01 02:23:18
  TRACK 110 AUDIO
    TITLE "15:cjc171_03555"
    INDEX 01 02:23:47
  TRACK 111 AUDIO
    TITLE "0:"
    INDEX 01 02:25:54
  TRACK 112 AUDIO
    TITLE "11:cjc171_03556"
    INDEX 01 02:26:61
  TRACK 113 AUDIO
    TITLE "0:"
    INDEX 01 02:28:05
  TRACK 114 AUDIO
    TITLE "12:cjc171_03557"
    INDEX 01 02:28:46
  TRACK 115 AUDIO
    TITLE "0:"
    INDEX 01 02:30:10
  TRACK 116 AUDIO
    TITLE "13:cjc171_03558"
    INDEX 01 02:31:09
  TRACK 117 AUDIO
    TITLE "0:"
    INDEX 01 02:33:08
  TRACK 118 AUDIO
    TITLE "14:cjc171_03559"
    INDEX 01 02:33:49
  TRACK 119 AUDIO
    TITLE "0:"
    INDEX 01 02:35:31
  TRACK 120 AUDIO
    TITLE "15:cjc171_03560"
    INDEX 01 02:35:62
  TRACK 121 AUDIO
    TITLE "0:"
    INDEX 01 02:37:43
  TRACK 122 AUDIO
    TITLE "11:cjc171_03561"
    INDEX 01 02:38:49
  TRACK 123 AUDIO
    TITLE "0:"
    INDEX 01 02:40:08
  TRACK 124 AUDIO
    TITLE "12:cjc171_03562"
    INDEX 01 02:40:42
  TRACK 125 AUDIO
    TITLE "0:"
    INDEX 01 02:42:09
  TRACK 126 AUDIO
    TITLE "13:cjc171_03563"
    INDEX 01 02:43:05
  TRACK 127 AUDIO
    TITLE "0:"
    INDEX 01 02:44:67
  TRACK 128 AUDIO
    TITLE "14:cjc171_03564"
    INDEX 01 02:45:23
  TRACK 129 AUDIO
    TITLE "0:"
    INDEX 01 02:47:53
  TRACK 130 AUDIO
    TITLE "15:cjc171_03565"
    INDEX 01 02:47:75
  TRACK 131 AUDIO
    TITLE "0:"
    INDEX 01 02:50:32
  TRACK 132 AUDIO
    TITLE "11:cjc171_03566"
    INDEX 01 02:51:40
  TRACK 133 AUDIO
    TITLE "0:"
    INDEX 01 02:52:61
  TRACK 134 AUDIO
    TITLE "12:cjc171_03567"
    INDEX 01 02:53:21
  TRACK 135 AUDIO
    TITLE "0:"
    INDEX 01 02:55:73
  TRACK 136 AUDIO
    TITLE "13:cjc171_03568"
    INDEX 01 02:56:68
  TRACK 137 AUDIO
    TITLE "0:"
    INDEX 01 02:59:57
  TRACK 138 AUDIO
    TITLE "14:cjc171_03569"
    INDEX 01 03:00:19
  TRACK 139 AUDIO
    TITLE "0:"
    INDEX 01 03:02:73
  TRACK 140 AUDIO
    TITLE "15:cjc171_03570"
    INDEX 01 03:03:27
  TRACK 141 AUDIO
    TITLE "0:"
    INDEX 01 03:06:06
  TRACK 142 AUDIO
    TITLE "11:cjc171_03571"
    INDEX 01 03:07:09
  TRACK 143 AUDIO
    TITLE "0:"
    INDEX 01 03:08:16
  TRACK 144 AUDIO
    TITLE "12:cjc171_03572"
    INDEX 01 03:08:50
  TRACK 145 AUDIO
    TITLE "0:"
    INDEX 01 03:10:60
  TRACK 146 AUDIO
    TITLE "13:cjc171_03573"
    INDEX 01 03:11:60
  TRACK 147 AUDIO
    TITLE "0:"
    INDEX 01 03:13:59
  TRACK 148 AUDIO
    TITLE "14:cjc171_03574"
    INDEX 01 03:14:21
  TRACK 149 AUDIO
    TITLE "0:"
    INDEX 01 03:16:10
  TRACK 150 AUDIO
    TITLE "15:cjc171_03575"
    INDEX 01 03:16:37
  TRACK 151 AUDIO
    TITLE "0:"
    INDEX 01 03:18:25
  TRACK 152 AUDIO
    TITLE "11:cjc171_03576"
    INDEX 01 03:19:26
  TRACK 153 AUDIO
    TITLE "0:"
    INDEX 01 03:20:41
  TRACK 154 AUDIO
    TITLE "12:cjc171_03577"
    INDEX 01 03:21:05
  TRACK 155 AUDIO
    TITLE "0:"
    INDEX 01 03:23:30
  TRACK 156 AUDIO
    TITLE "13:cjc171_03578"
    INDEX 01 03:24:29
  TRACK 157 AUDIO
    TITLE "0:"
    INDEX 01 03:26:69
  TRACK 158 AUDIO
    TITLE "14:cjc171_03579"
    INDEX 01 03:27:28
  TRACK 159 AUDIO
    TITLE "0:"
    INDEX 01 03:29:66
  TRACK 160 AUDIO
    TITLE "15:cjc171_03580"
    INDEX 01 03:30:04
  TRACK 161 AUDIO
    TITLE "0:"
    INDEX 01 03:32:42
  TRACK 162 AUDIO
    TITLE "11:cjc171_03581"
    INDEX 01 03:33:40
  TRACK 163 AUDIO
    TITLE "0:"
    INDEX 01 03:34:57
  TRACK 164 AUDIO
    TITLE "12:cjc171_03582"
    INDEX 01 03:35:23
  TRACK 165 AUDIO
    TITLE "0:"
    INDEX 01 03:37:63
  TRACK 166 AUDIO
    TITLE "13:cjc171_03583"
    INDEX 01 03:38:63
  TRACK 167 AUDIO
    TITLE "0:"
    INDEX 01 03:41:22
  TRACK 168 AUDIO
    TITLE "14:cjc171_03584"
    INDEX 01 03:41:55
  TRACK 169 AUDIO
    TITLE "0:"
    INDEX 01 03:43:52
  TRACK 170 AUDIO
    TITLE "15:cjc171_03585"
    INDEX 01 03:44:02
  TRACK 171 AUDIO
    TITLE "0:"
    INDEX 01 03:45:74
  TRACK 172 AUDIO
    TITLE "11:cjc171_03586"
    INDEX 01 03:47:07
  TRACK 173 AUDIO
    TITLE "0:"
    INDEX 01 03:48:32
  TRACK 174 AUDIO
    TITLE "12:cjc171_03587"
    INDEX 01 03:48:69
  TRACK 175 AUDIO
    TITLE "0:"
    INDEX 01 03:51:24
  TRACK 176 AUDIO
    TITLE "13:cjc171_03588"
    INDEX 01 03:52:25
  TRACK 177 AUDIO
    TITLE "0:"
    INDEX 01 03:54:67
  TRACK 178 AUDIO
    TITLE "14:cjc171_03589"
    INDEX 01 03:55:28
  TRACK 179 AUDIO
    TITLE "0:"
    INDEX 01 03:57:17
  TRACK 180 AUDIO
    TITLE "15:cjc171_03590"
    INDEX 01 03:57:44
  TRACK 181 AUDIO
    TITLE "0:"
    INDEX 01 03:59:35
  TRACK 182 AUDIO
    TITLE "11:cjc171_03591"
    INDEX 01 04:00:41
  TRACK 183 AUDIO
    TITLE "0:"
    INDEX 01 04:01:66
  TRACK 184 AUDIO
    TITLE "12:cjc171_03592"
    INDEX 01 04:02:22
  TRACK 185 AUDIO
    TITLE "0:"
    INDEX 01 04:04:46
  TRACK 186 AUDIO
    TITLE "13:cjc171_03593"
    INDEX 01 04:05:48
  TRACK 187 AUDIO
    TITLE "0:"
    INDEX 01 04:07:19
  TRACK 188 AUDIO
    TITLE "14:cjc171_03594"
    INDEX 01 04:07:52
  TRACK 189 AUDIO
    TITLE "0:"
    INDEX 01 04:09:36
  TRACK 190 AUDIO
    TITLE "15:cjc171_03595"
    INDEX 01 04:09:57
  TRACK 191 AUDIO
    TITLE "0:"
    INDEX 01 04:11:39
  TRACK 192 AUDIO
    TITLE "11:cjc171_03596"
    INDEX 01 04:12:44
  TRACK 193 AUDIO
    TITLE "0:"
    INDEX 01 04:13:63
  TRACK 194 AUDIO
    TITLE "12:cjc171_03597"
    INDEX 01 04:14:31
  TRACK 195 AUDIO
    TITLE "0:"
    INDEX 01 04:17:16
  TRACK 196 AUDIO
    TITLE "13:cjc171_03598"
    INDEX 01 04:18:17
  TRACK 197 AUDIO
    TITLE "0:"
    INDEX 01 04:20:26
  TRACK 198 AUDIO
    TITLE "14:cjc171_03599"
    INDEX 01 04:20:65
  TRACK 199 AUDIO
    TITLE "0:"
    INDEX 01 04:22:64
  TRACK 200 AUDIO
    TITLE "15:cjc171_03600"
    INDEX 01 04:23:16
  TRACK 201 AUDIO
    TITLE "0:"
    INDEX 01 04:25:15
  TRACK 202 AUDIO
    TITLE "11:cjc171_03601"
    INDEX 01 04:26:20
  TRACK 203 AUDIO
    TITLE "0:"
    INDEX 01 04:27:38
  TRACK 204 AUDIO
    TITLE "12:cjc171_03602"
    INDEX 01 04:28:02
  TRACK 205 AUDIO
    TITLE "0:"
    INDEX 01 04:30:55
  TRACK 206 AUDIO
    TITLE "13:cjc171_03603"
    INDEX 01 04:31:53
  TRACK 207 AUDIO
    TITLE "0:"
    INDEX 01 04:33:26
  TRACK 208 AUDIO
    TITLE "14:cjc171_03604"
    INDEX 01 04:33:66
  TRACK 209 AUDIO
    TITLE "0:"
    INDEX 01 04:35:61
  TRACK 210 AUDIO
    TITLE "15:cjc171_03605"
    INDEX 01 04:36:15
  TRACK 211 AUDIO
    TITLE "0:"
    INDEX 01 04:38:10
  TRACK 212 AUDIO
    TITLE "11:cjc171_03606"
    INDEX 01 04:39:17
  TRACK 213 AUDIO
    TITLE "0:"
    INDEX 01 04:40:46
  TRACK 214 AUDIO
    TITLE "12:cjc171_03607"
    INDEX 01 04:41:12
  TRACK 215 AUDIO
    TITLE "0:"
    INDEX 01 04:44:46
  TRACK 216 AUDIO
    TITLE "13:cjc171_03608"
    INDEX 01 04:45:43
  TRACK 217 AUDIO
    TITLE "0:"
    INDEX 01 04:48:20
  TRACK 218 AUDIO
    TITLE "14:cjc171_03609"
    INDEX 01 04:48:59
  TRACK 219 AUDIO
    TITLE "0:"
    INDEX 01 04:51:46
  TRACK 220 AUDIO
    TITLE "15:cjc171_03610"
    INDEX 01 04:51:75
  TRACK 221 AUDIO
    TITLE "0:"
    INDEX 01 04:54:62
  TRACK 222 AUDIO
    TITLE "11:cjc171_03611"
    INDEX 01 04:55:65
  TRACK 223 AUDIO
    TITLE "0:"
    INDEX 01 04:57:03
  TRACK 224 AUDIO
    TITLE "12:cjc171_03612"
    INDEX 01 04:57:43
  TRACK 225 AUDIO
    TITLE "0:"
    INDEX 01 04:59:41
  TRACK 226 AUDIO
    TITLE "13:cjc171_03613"
    INDEX 01 05:00:39
  TRACK 227 AUDIO
    TITLE "0:"
    INDEX 01 05:02:46
  TRACK 228 AUDIO
    TITLE "14:cjc171_03614"
    INDEX 01 05:03:12
  TRACK 229 AUDIO
    TITLE "0:"
    INDEX 01 05:05:38
  TRACK 230 AUDIO
    TITLE "15:cjc171_03615"
    INDEX 01 05:05:70
  TRACK 231 AUDIO
    TITLE "0:"
    INDEX 01 05:08:19
  TRACK 232 AUDIO
    TITLE "11:cjc171_03616"
    INDEX 01 05:09:22
  TRACK 233 AUDIO
    TITLE "0:"
    INDEX 01 05:10:57
  TRACK 234 AUDIO
    TITLE "12:cjc171_03617"
    INDEX 01 05:11:23
  TRACK 235 AUDIO
    TITLE "0:"
    INDEX 01 05:12:64
  TRACK 236 AUDIO
    TITLE "13:cjc171_03618"
    INDEX 01 05:13:61
  TRACK 237 AUDIO
    TITLE "0:"
    INDEX 01 05:16:01
  TRACK 238 AUDIO
    TITLE "14:cjc171_03619"
    INDEX 01 05:16:40
  TRACK 239 AUDIO
    TITLE "0:"
    INDEX 01 05:18:49
  TRACK 240 AUDIO
    TITLE "15:cjc171_03620"
    INDEX 01 05:19:05
  TRACK 241 AUDIO
    TITLE "0:"
    INDEX 01 05:21:14
  TRACK 242 AUDIO
    TITLE "11:cjc171_03621"
    INDEX 01 05:22:21
  TRACK 243 AUDIO
    TITLE "0:"
    INDEX 01 05:23:38
  TRACK 244 AUDIO
    TITLE "12:cjc171_03622"
    INDEX 01 05:24:02
  TRACK 245 AUDIO
    TITLE "0:"
    INDEX 01 05:25:11
  TRACK 246 AUDIO
    TITLE "13:cjc171_03623"
    INDEX 01 05:26:13
  TRACK 247 AUDIO
    TITLE "0:"
    INDEX 01 05:29:15
  TRACK 248 AUDIO
    TITLE "14:cjc171_03624"
    INDEX 01 05:29:52
  TRACK 249 AUDIO
    TITLE "0:"
    INDEX 01 05:32:33
  TRACK 250 AUDIO
    TITLE "15:cjc171_03625"
    INDEX 01 05:32:64
  TRACK 251 AUDIO
    TITLE "0:"
    INDEX 01 05:35:47
  TRACK 252 AUDIO
    TITLE "11:cjc171_03626"
    INDEX 01 05:36:52
  TRACK 253 AUDIO
    TITLE "0:"
    INDEX 01 05:37:70
  TRACK 254 AUDIO
    TITLE "12:cjc171_03627"
    INDEX 01 05:38:32
  TRACK 255 AUDIO
    TITLE "0:"
    INDEX 01 05:41:26
  TRACK 256 AUDIO
    TITLE "13:cjc171_03628"
    INDEX 01 05:42:28
  TRACK 257 AUDIO
    TITLE "0:"
    INDEX 01 05:44:30
  TRACK 258 AUDIO
    TITLE "14:cjc171_03629"
    INDEX 01 05:44:70
  TRACK 259 AUDIO
    TITLE "0:"
    INDEX 01 05:46:70
  TRACK 260 AUDIO
    TITLE "15:cjc171_03630"
    INDEX 01 05:47:25
  TRACK 261 AUDIO
    TITLE "0:"
    INDEX 01 05:49:26
  TRACK 262 AUDIO
    TITLE "11:cjc171_03631"
    INDEX 01 05:50:29
  TRACK 263 AUDIO
    TITLE "0:"
    INDEX 01 05:51:42
  TRACK 264 AUDIO
    TITLE "12:cjc171_03632"
    INDEX 01 05:52:02
  TRACK 265 AUDIO
    TITLE "0:"
    INDEX 01 05:54:70
  TRACK 266 AUDIO
    TITLE "13:cjc171_03633"
    INDEX 01 05:55:71
  TRACK 267 AUDIO
    TITLE "0:"
    INDEX 01 05:58:13
  TRACK 268 AUDIO
    TITLE "14:cjc171_03634"
    INDEX 01 05:58:52
  TRACK 269 AUDIO
    TITLE "0:"
    INDEX 01 06:00:47
  TRACK 270 AUDIO
    TITLE "15:cjc171_03635"
    INDEX 01 06:01:01
  TRACK 271 AUDIO
    TITLE "0:"
    INDEX 01 06:02:71
  TRACK 272 AUDIO
    TITLE "11:cjc171_03636"
    INDEX 01 06:04:02
  TRACK 273 AUDIO
    TITLE "0:"
    INDEX 01 06:05:15
  TRACK 274 AUDIO
    TITLE "12:cjc171_03637"
    INDEX 01 06:05:54
  TRACK 275 AUDIO
    TITLE "0:"
    INDEX 01 06:06:67
  TRACK 276 AUDIO
    TITLE "13:cjc171_03638"
    INDEX 01 06:07:67
  TRACK 277 AUDIO
    TITLE "0:"
    INDEX 01 06:10:26
  TRACK 278 AUDIO
    TITLE "14:cjc171_03639"
    INDEX 01 06:10:65
  TRACK 279 AUDIO
    TITLE "0:"
    INDEX 01 06:12:62
  TRACK 280 AUDIO
    TITLE "15:cjc171_03640"
    INDEX 01 06:13:14
  TRACK 281 AUDIO
    TITLE "0:"
    INDEX 01 06:15:11
  TRACK 282 AUDIO
    TITLE "11:cjc171_03641"
    INDEX 01 06:16:15
  TRACK 283 AUDIO
    TITLE "0:"
    INDEX 01 06:17:36
  TRACK 284 AUDIO
    TITLE "12:cjc171_03642"
    INDEX 01 06:18:04
  TRACK 285 AUDIO
    TITLE "0:"
    INDEX 01 06:19:15
  TRACK 286 AUDIO
    TITLE "13:cjc171_03643"
    INDEX 01 06:20:14
  TRACK 287 AUDIO
    TITLE "0:"
    INDEX 01 06:22:60
  TRACK 288 AUDIO
    TITLE "14:cjc171_03644"
    INDEX 01 06:23:25
  TRACK 289 AUDIO
    TITLE "0:"
    INDEX 01 06:25:49
  TRACK 290 AUDIO
    TITLE "15:cjc171_03645"
    INDEX 01 06:26:01
  TRACK 291 AUDIO
    TITLE "0:"
    INDEX 01 06:28:26
  TRACK 292 AUDIO
    TITLE "11:cjc171_03646"
    INDEX 01 06:29:29
  TRACK 293 AUDIO
    TITLE "0:"
    INDEX 01 06:30:46
  TRACK 294 AUDIO
    TITLE "12:cjc171_03647"
    INDEX 01 06:31:12
  TRACK 295 AUDIO
    TITLE "0:"
    INDEX 01 06:34:01
  TRACK 296 AUDIO
    TITLE "13:cjc171_03648"
    INDEX 01 06:35:02
  TRACK 297 AUDIO
    TITLE "0:"
    INDEX 01 06:37:54
  TRACK 298 AUDIO
    TITLE "14:cjc171_03649"
    INDEX 01 06:38:16
  TRACK 299 AUDIO
    TITLE "0:"
    INDEX 01 06:40:56
  TRACK 300 AUDIO
    TITLE "15:cjc171_03650"
    INDEX 01 06:41:07
  TRACK 301 AUDIO
    TITLE "0:"
    INDEX 01 06:43:45
  TRACK 302 AUDIO
    TITLE "11:cjc171_03651"
    INDEX 01 06:44:46
  TRACK 303 AUDIO
    TITLE "0:"
    INDEX 01 06:46:06
  TRACK 304 AUDIO
    TITLE "12:cjc171_03652"
    INDEX 01 06:46:47
  TRACK 305 AUDIO
    TITLE "0:"
    INDEX 01 06:49:20
  TRACK 306 AUDIO
    TITLE "13:cjc171_03653"
    INDEX 01 06:50:19
  TRACK 307 AUDIO
    TITLE "0:"
    INDEX 01 06:52:20
  TRACK 308 AUDIO
    TITLE "14:cjc171_03654"
    INDEX 01 06:52:60
  TRACK 309 AUDIO
    TITLE "0:"
    INDEX 01 06:55:34
  TRACK 310 AUDIO
    TITLE "15:cjc171_03655"
    INDEX 01 06:55:62
  TRACK 311 AUDIO
    TITLE "0:"
    INDEX 01 06:58:37
  TRACK 312 AUDIO
    TITLE "11:cjc171_03656"
    INDEX 01 06:59:40
  TRACK 313 AUDIO
    TITLE "0:"
    INDEX 01 07:00:53
  TRACK 314 AUDIO
    TITLE "12:cjc171_03657"
    INDEX 01 07:01:13
  TRACK 315 AUDIO
    TITLE "0:"
    INDEX 01 07:04:20
  TRACK 316 AUDIO
    TITLE "13:cjc171_03658"
    INDEX 01 07:05:19
  TRACK 317 AUDIO
    TITLE "0:"
    INDEX 01 07:07:53
  TRACK 318 AUDIO
    TITLE "14:cjc171_03659"
    INDEX 01 07:08:10
  TRACK 319 AUDIO
    TITLE "0:"
    INDEX 01 07:10:48
  TRACK 320 AUDIO
    TITLE "15:cjc171_03660"
    INDEX 01 07:10:65
  TRACK 321 AUDIO
    TITLE "0:"
    INDEX 01 07:13:30
  TRACK 322 AUDIO
    TITLE "11:cjc171_03661"
    INDEX 01 07:14:30
  TRACK 323 AUDIO
    TITLE "0:"
    INDEX 01 07:15:55
  TRACK 324 AUDIO
    TITLE "12:cjc171_03662"
    INDEX 01 07:16:19
  TRACK 325 AUDIO
    TITLE "0:"
    INDEX 01 07:17:46
  TRACK 326 AUDIO
    TITLE "13:cjc171_03663"
    INDEX 01 07:18:41
  TRACK 327 AUDIO
    TITLE "0:"
    INDEX 01 07:20:26
  TRACK 328 AUDIO
    TITLE "14:cjc171_03664"
    INDEX 01 07:20:64
  TRACK 329 AUDIO
    TITLE "0:"
    INDEX 01 07:22:59
  TRACK 330 AUDIO
    TITLE "15:cjc171_03665"
    INDEX 01 07:23:13
  TRACK 331 AUDIO
    TITLE "0:"
    INDEX 01 07:25:06
  TRACK 332 AUDIO
    TITLE "11:cjc171_03666"
    INDEX 01 07:26:09
  TRACK 333 AUDIO
    TITLE "0:"
    INDEX 01 07:27:27
  TRACK 334 AUDIO
    TITLE "12:cjc171_03667"
    INDEX 01 07:27:70
  TRACK 335 AUDIO
    TITLE "0:"
    INDEX 01 07:29:25
  TRACK 336 AUDIO
    TITLE "13:cjc171_03668"
    INDEX 01 07:30:25
  TRACK 337 AUDIO
    TITLE "0:"
    INDEX 01 07:33:11
  TRACK 338 AUDIO
    TITLE "14:cjc171_03669"
    INDEX 01 07:33:51
  TRACK 339 AUDIO
    TITLE "0:"
    INDEX 01 07:37:09
  TRACK 340 AUDIO
    TITLE "15:cjc171_03670"
    INDEX 01 07:37:35
  TRACK 341 AUDIO
    TITLE "0:"
    INDEX 01 07:40:68
  TRACK 342 AUDIO
    TITLE "11:cjc171_03671"
    INDEX 01 07:41:72
  TRACK 343 AUDIO
    TITLE "0:"
    INDEX 01 07:43:06
  TRACK 344 AUDIO
    TITLE "12:cjc171_03672"
    INDEX 01 07:43:45
  TRACK 345 AUDIO
    TITLE "0:"
    INDEX 01 07:45:70
  TRACK 346 AUDIO
    TITLE "13:cjc171_03673"
    INDEX 01 07:46:69
  TRACK 347 AUDIO
    TITLE "0:"
    INDEX 01 07:49:12
  TRACK 348 AUDIO
    TITLE "14:cjc171_03674"
    INDEX 01 07:49:50
  TRACK 349 AUDIO
    TITLE "0:"
    INDEX 01 07:51:58
  TRACK 350 AUDIO
    TITLE "15:cjc171_03675"
    INDEX 01 07:52:15
  TRACK 351 AUDIO
    TITLE "0:"
    INDEX 01 07:54:19
  TRACK 352 AUDIO
    TITLE "11:cjc171_03676"
    INDEX 01 07:55:27
  TRACK 353 AUDIO
    TITLE "0:"
    INDEX 01 07:56:52
  TRACK 354 AUDIO
    TITLE "12:cjc171_03677"
    INDEX 01 07:57:18
  TRACK 355 AUDIO
    TITLE "0:"
    INDEX 01 07:58:55
  TRACK 356 AUDIO
    TITLE "13:cjc171_03678"
    INDEX 01 07:59:52
  TRACK 357 AUDIO
    TITLE "0:"
    INDEX 01 08:01:55
  TRACK 358 AUDIO
    TITLE "14:cjc171_03679"
    INDEX 01 08:02:17
  TRACK 359 AUDIO
    TITLE "0:"
    INDEX 01 08:04:71
  TRACK 360 AUDIO
    TITLE "15:cjc171_03680"
    INDEX 01 08:05:25
  TRACK 361 AUDIO
    TITLE "0:"
    INDEX 01 08:08:02
  TRACK 362 AUDIO
    TITLE "11:cjc171_03681"
    INDEX 01 08:09:07
  TRACK 363 AUDIO
    TITLE "0:"
    INDEX 01 08:10:20
  TRACK 364 AUDIO
    TITLE "12:cjc171_03682"
    INDEX 01 08:10:62
  TRACK 365 AUDIO
    TITLE "0:"
    INDEX 01 08:13:21
  TRACK 366 AUDIO
    TITLE "13:cjc171_03683"
    INDEX 01 08:14:24
  TRACK 367 AUDIO
    TITLE "0:"
    INDEX 01 08:16:50
  TRACK 368 AUDIO
    TITLE "14:cjc171_03684"
    INDEX 01 08:17:15
  TRACK 369 AUDIO
    TITLE "0:"
    INDEX 01 08:19:27
  TRACK 370 AUDIO
    TITLE "15:cjc171_03685"
    INDEX 01 08:19:57
  TRACK 371 AUDIO
    TITLE "0:"
    INDEX 01 08:21:69
  TRACK 372 AUDIO
    TITLE "11:cjc171_03686"
    INDEX 01 08:22:75
  TRACK 373 AUDIO
    TITLE "0:"
    INDEX 01 08:24:05
  TRACK 374 AUDIO
    TITLE "12:cjc171_03687"
    INDEX 01 08:24:44
  TRACK 375 AUDIO
    TITLE "0:"
    INDEX 01 08:26:23
  TRACK 376 AUDIO
    TITLE "13:cjc171_03688"
    INDEX 01 08:27:23
  TRACK 377 AUDIO
    TITLE "0:"
    INDEX 01 08:29:71
  TRACK 378 AUDIO
    TITLE "14:cjc171_03689"
    INDEX 01 08:30:37
  TRACK 379 AUDIO
    TITLE "0:"
    INDEX 01 08:33:49
  TRACK 380 AUDIO
    TITLE "15:cjc171_03690"
    INDEX 01 08:34:05
  TRACK 381 AUDIO
    TITLE "0:"
    INDEX 01 08:37:17
  TRACK 382 AUDIO
    TITLE "11:cjc171_03691"
    INDEX 01 08:38:23
  TRACK 383 AUDIO
    TITLE "0:"
    INDEX 01 08:39:59
  TRACK 384 AUDIO
    TITLE "12:cjc171_03692"
    INDEX 01 08:40:24
  TRACK 385 AUDIO
    TITLE "0:"
    INDEX 01 08:42:64
  TRACK 386 AUDIO
    TITLE "13:cjc171_03693"
    INDEX 01 08:43:65
  TRACK 387 AUDIO
    TITLE "0:"
    INDEX 01 08:45:66
  TRACK 388 AUDIO
    TITLE "14:cjc171_03694"
    INDEX 01 08:46:32
  TRACK 389 AUDIO
    TITLE "0:"
    INDEX 01 08:48:41
  TRACK 390 AUDIO
    TITLE "15:cjc171_03695"
    INDEX 01 08:48:68
  TRACK 391 AUDIO
    TITLE "0:"
    INDEX 01 08:51:02
  TRACK 392 AUDIO
    TITLE "11:cjc171_03696"
    INDEX 01 08:52:05
  TRACK 393 AUDIO
    TITLE "0:"
    INDEX 01 08:53:42
  TRACK 394 AUDIO
    TITLE "12:cjc171_03697"
    INDEX 01 08:54:04
  TRACK 395 AUDIO
    TITLE "0:"
    INDEX 01 08:56:72
  TRACK 396 AUDIO
    TITLE "13:cjc171_03698"
    INDEX 01 08:57:69
  TRACK 397 AUDIO
    TITLE "0:"
    INDEX 01 08:59:44
  TRACK 398 AUDIO
    TITLE "14:cjc171_03699"
    INDEX 01 09:00:07
  TRACK 399 AUDIO
    TITLE "0:"
    INDEX 01 09:02:19
  TRACK 400 AUDIO
    TITLE "15:cjc171_03700"
    INDEX 01 09:02:53
  TRACK 401 AUDIO
    TITLE "0:"
    INDEX 01 09:04:63
  TRACK 402 AUDIO
    TITLE "11:cjc171_03701"
    INDEX 01 09:05:74
  TRACK 403 AUDIO
    TITLE "0:"
    INDEX 01 09:07:09
  TRACK 404 AUDIO
    TITLE "12:cjc171_03702"
    INDEX 01 09:07:48
  TRACK 405 AUDIO
    TITLE "0:"
    INDEX 01 09:09:04
  TRACK 406 AUDIO
    TITLE "13:cjc171_03703"
    INDEX 01 09:10:01
  TRACK 407 AUDIO
    TITLE "0:"
    INDEX 01 09:11:30
  TRACK 408 AUDIO
    TITLE "14:cjc171_03704"
    INDEX 01 09:11:69
  TRACK 409 AUDIO
    TITLE "0:"
    INDEX 01 09:13:29
  TRACK 410 AUDIO
    TITLE "15:cjc171_03705"
    INDEX 01 09:13:60
  TRACK 411 AUDIO
    TITLE "0:"
    INDEX 01 09:15:20
  TRACK 412 AUDIO
    TITLE "11:cjc171_03706"
    INDEX 01 09:16:25
  TRACK 413 AUDIO
    TITLE "0:"
    INDEX 01 09:17:36
  TRACK 414 AUDIO
    TITLE "12:cjc171_03707"
    INDEX 01 09:18:03
  TRACK 415 AUDIO
    TITLE "0:"
    INDEX 01 09:19:33
  TRACK 416 AUDIO
    TITLE "13:cjc171_03708"
    INDEX 01 09:20:33
  TRACK 417 AUDIO
    TITLE "0:"
    INDEX 01 09:23:47
  TRACK 418 AUDIO
    TITLE "14:cjc171_03709"
    INDEX 01 09:24:11
  TRACK 419 AUDIO
    TITLE "0:"
    INDEX 01 09:26:61
  TRACK 420 AUDIO
    TITLE "15:cjc171_03710"
    INDEX 01 09:27:17
  TRACK 421 AUDIO
    TITLE "0:"
    INDEX 01 09:29:69
  TRACK 422 AUDIO
    TITLE "11:cjc171_03711"
    INDEX 01 09:31:07
  TRACK 423 AUDIO
    TITLE "0:"
    INDEX 01 09:32:34
  TRACK 424 AUDIO
    TITLE "12:cjc171_03712"
    INDEX 01 09:32:75
  TRACK 425 AUDIO
    TITLE "0:"
    INDEX 01 09:36:51
  TRACK 426 AUDIO
    TITLE "13:cjc171_03713"
    INDEX 01 09:37:53
  TRACK 427 AUDIO
    TITLE "0:"
    INDEX 01 09:39:64
  TRACK 428 AUDIO
    TITLE "14:cjc171_03714"
    INDEX 01 09:40:24
  TRACK 429 AUDIO
    TITLE "0:"
    INDEX 01 09:42:23
  TRACK 430 AUDIO
    TITLE "15:cjc171_03715"
    INDEX 01 09:42:52
  TRACK 431 AUDIO
    TITLE "0:"
    INDEX 01 09:44:51
  TRACK 432 AUDIO
    TITLE "11:cjc171_03716"
    INDEX 01 09:45:54
  TRACK 433 AUDIO
    TITLE "0:"
    INDEX 01 09:47:02
  TRACK 434 AUDIO
    TITLE "12:cjc171_03717"
    INDEX 01 09:47:41
  TRACK 435 AUDIO
    TITLE "0:"
    INDEX 01 09:48:62
  TRACK 436 AUDIO
    TITLE "13:cjc171_03718"
    INDEX 01 09:49:62
  TRACK 437 AUDIO
    TITLE "0:"
    INDEX 01 09:52:03
  TRACK 438 AUDIO
    TITLE "14:cjc171_03719"
    INDEX 01 09:52:43
  TRACK 439 AUDIO
    TITLE "0:"
    INDEX 01 09:54:61
  TRACK 440 AUDIO
    TITLE "15:cjc171_03720"
    INDEX 01 09:55:17
  TRACK 441 AUDIO
    TITLE "0:"
    INDEX 01 09:57:38
  TRACK 442 AUDIO
    TITLE "11:cjc171_03721"
    INDEX 01 09:58:43
  TRACK 443 AUDIO
    TITLE "0:"
    INDEX 01 09:59:66
  TRACK 444 AUDIO
    TITLE "12:cjc171_03722"
    INDEX 01 10:00:30
  TRACK 445 AUDIO
    TITLE "0:"
    INDEX 01 10:03:15
  TRACK 446 AUDIO
    TITLE "13:cjc171_03723"
    INDEX 01 10:04:14
  TRACK 447 AUDIO
    TITLE "0:"
    INDEX 01 10:06:41
  TRACK 448 AUDIO
    TITLE "14:cjc171_03724"
    INDEX 01 10:07:05
  TRACK 449 AUDIO
    TITLE "0:"
    INDEX 01 10:09:14
  TRACK 450 AUDIO
    TITLE "15:cjc171_03725"
    INDEX 01 10:09:41
  TRACK 451 AUDIO
    TITLE "0:"
    INDEX 01 10:11:50
  TRACK 452 AUDIO
    TITLE "11:cjc171_03726"
    INDEX 01 10:12:55
  TRACK 453 AUDIO
    TITLE "0:"
    INDEX 01 10:14:11
  TRACK 454 AUDIO
    TITLE "12:cjc171_03727"
    INDEX 01 10:14:50
  TRACK 455 AUDIO
    TITLE "0:"
    INDEX 01 10:15:71
  TRACK 456 AUDIO
    TITLE "13:cjc171_03728"
    INDEX 01 10:16:73
  TRACK 457 AUDIO
    TITLE "0:"
    INDEX 01 10:19:02
  TRACK 458 AUDIO
    TITLE "14:cjc171_03729"
    INDEX 01 10:19:41
  TRACK 459 AUDIO
    TITLE "0:"
    INDEX 01 10:21:42
  TRACK 460 AUDIO
    TITLE "15:cjc171_03730"
    INDEX 01 10:21:72
  TRACK 461 AUDIO
    TITLE "0:"
    INDEX 01 10:23:73
  TRACK 462 AUDIO
    TITLE "11:cjc171_03731"
    INDEX 01 10:25:03
  TRACK 463 AUDIO
    TITLE "0:"
    INDEX 01 10:26:06
  TRACK 464 AUDIO
    TITLE "12:cjc171_03732"
    INDEX 01 10:26:45
  TRACK 465 AUDIO
    TITLE "0:"
    INDEX 01 10:28:03
  TRACK 466 AUDIO
    TITLE "13:cjc171_03733"
    INDEX 01 10:29:03
  TRACK 467 AUDIO
    TITLE "0:"
    INDEX 01 10:31:66
  TRACK 468 AUDIO
    TITLE "14:cjc171_03734"
    INDEX 01 10:32:30
  TRACK 469 AUDIO
    TITLE "0:"
    INDEX 01 10:34:66
  TRACK 470 AUDIO
    TITLE "15:cjc171_03735"
    INDEX 01 10:35:17
  TRACK 471 AUDIO
    TITLE "0:"
    INDEX 01 10:37:51
  TRACK 472 AUDIO
    TITLE "11:cjc171_03736"
    INDEX 01 10:38:55
  TRACK 473 AUDIO
    TITLE "0:"
    INDEX 01 10:40:14
  TRACK 474 AUDIO
    TITLE "12:cjc171_03737"
    INDEX 01 10:40:51
  TRACK 475 AUDIO
    TITLE "0:"
    INDEX 01 10:43:69
  TRACK 476 AUDIO
    TITLE "13:cjc171_03738"
    INDEX 01 10:44:71
  TRACK 477 AUDIO
    TITLE "0:"
    INDEX 01 10:47:14
  TRACK 478 AUDIO
    TITLE "14:cjc171_03739"
    INDEX 01 10:47:55
  TRACK 479 AUDIO
    TITLE "0:"
    INDEX 01 10:50:26
  TRACK 480 AUDIO
    TITLE "15:cjc171_03740"
    INDEX 01 10:50:58
  TRACK 481 AUDIO
    TITLE "0:"
    INDEX 01 10:53:29
  TRACK 482 AUDIO
    TITLE "11:cjc171_03741"
    INDEX 01 10:54:36
  TRACK 483 AUDIO
    TITLE "0:"
    INDEX 01 10:55:53
  TRACK 484 AUDIO
    TITLE "12:cjc171_03742"
    INDEX 01 10:56:17
  TRACK 485 AUDIO
    TITLE "0:"
    INDEX 01 10:57:28
  TRACK 486 AUDIO
    TITLE "13:cjc171_03743"
    INDEX 01 10:58:28
  TRACK 487 AUDIO
    TITLE "0:"
    INDEX 01 11:00:37
  TRACK 488 AUDIO
    TITLE "14:cjc171_03744"
    INDEX 01 11:00:74
  TRACK 489 AUDIO
    TITLE "0:"
    INDEX 01 11:03:15
  TRACK 490 AUDIO
    TITLE "15:cjc171_03745"
    INDEX 01 11:03:45
  TRACK 491 AUDIO
    TITLE "0:"
    INDEX 01 11:05:61
  TRACK 492 AUDIO
    TITLE "11:cjc171_03746"
    INDEX 01 11:06:66
  TRACK 493 AUDIO
    TITLE "0:"
    INDEX 01 11:08:03
  TRACK 494 AUDIO
    TITLE "12:cjc171_03747"
    INDEX 01 11:08:42
  TRACK 495 AUDIO
    TITLE "0:"
    INDEX 01 11:10:07
  TRACK 496 AUDIO
    TITLE "13:cjc171_03748"
    INDEX 01 11:11:07
  TRACK 497 AUDIO
    TITLE "0:"
    INDEX 01 11:13:39
  TRACK 498 AUDIO
    TITLE "14:cjc171_03749"
    INDEX 01 11:14:01
  TRACK 499 AUDIO
    TITLE "0:"
    INDEX 01 11:16:32
  TRACK 500 AUDIO
    TITLE "15:cjc171_03750"
    INDEX 01 11:16:63
  TRACK 501 AUDIO
    TITLE "0:"
    INDEX 01 11:19:18
  TRACK 502 AUDIO
    TITLE "11:cjc171_03751"
    INDEX 01 11:20:22
  TRACK 503 AUDIO
    TITLE "0:"
    INDEX 01 11:21:37
  TRACK 504 AUDIO
    TITLE "12:cjc171_03752"
    INDEX 01 11:22:03
  TRACK 505 AUDIO
    TITLE "0:"
    INDEX 01 11:24:17
  TRACK 506 AUDIO
    TITLE "13:cjc171_03753"
    INDEX 01 11:25:17
  TRACK 507 AUDIO
    TITLE "0:"
    INDEX 01 11:27:18
  TRACK 508 AUDIO
    TITLE "14:cjc171_03754"
    INDEX 01 11:27:57
  TRACK 509 AUDIO
    TITLE "0:"
    INDEX 01 11:29:60
  TRACK 510 AUDIO
    TITLE "15:cjc171_03755"
    INDEX 01 11:30:14
  TRACK 511 AUDIO
    TITLE "0:"
    INDEX 01 11:32:19
  TRACK 512 AUDIO
    TITLE "11:cjc171_03756"
    INDEX 01 11:33:22
  TRACK 513 AUDIO
    TITLE "0:"
    INDEX 01 11:34:53
  TRACK 514 AUDIO
    TITLE "12:cjc171_03757"
    INDEX 01 11:35:17
  TRACK 515 AUDIO
    TITLE "0:"
    INDEX 01 11:36:30
  TRACK 516 AUDIO
    TITLE "13:cjc171_03758"
    INDEX 01 11:37:30
  TRACK 517 AUDIO
    TITLE "0:"
    INDEX 01 11:39:25
  TRACK 518 AUDIO
    TITLE "14:cjc171_03759"
    INDEX 01 11:39:68
  TRACK 519 AUDIO
    TITLE "0:"
    INDEX 01 11:41:59
  TRACK 520 AUDIO
    TITLE "15:cjc171_03760"
    INDEX 01 11:42:15
  TRACK 521 AUDIO
    TITLE "0:"
    INDEX 01 11:44:06
  TRACK 522 AUDIO
    TITLE "11:cjc171_03761"
    INDEX 01 11:45:08
  TRACK 523 AUDIO
    TITLE "0:"
    INDEX 01 11:46:17
  TRACK 524 AUDIO
    TITLE "12:cjc171_03762"
    INDEX 01 11:46:58
  TRACK 525 AUDIO
    TITLE "0:"
    INDEX 01 11:49:04
  TRACK 526 AUDIO
    TITLE "13:cjc171_03763"
    INDEX 01 11:50:05
  TRACK 527 AUDIO
    TITLE "0:"
    INDEX 01 11:52:69
  TRACK 528 AUDIO
    TITLE "14:cjc171_03764"
    INDEX 01 11:53:33
  TRACK 529 AUDIO
    TITLE "0:"
    INDEX 01 11:55:51
  TRACK 530 AUDIO
    TITLE "15:cjc171_03765"
    INDEX 01 11:56:04
  TRACK 531 AUDIO
    TITLE "0:"
    INDEX 01 11:58:24
  TRACK 532 AUDIO
    TITLE "11:cjc171_03766"
    INDEX 01 11:59:28
  TRACK 533 AUDIO
    TITLE "0:"
    INDEX 01 12:00:33
  TRACK 534 AUDIO
    TITLE "12:cjc171_03767"
    INDEX 01 12:01:03
  TRACK 535 AUDIO
    TITLE "0:"
    INDEX 01 12:02:57
  TRACK 536 AUDIO
    TITLE "13:cjc171_03768"
    INDEX 01 12:03:59
  TRACK 537 AUDIO
    TITLE "0:"
    INDEX 01 12:06:06
  TRACK 538 AUDIO
    TITLE "14:cjc171_03769"
    INDEX 01 12:06:45
  TRACK 539 AUDIO
    TITLE "0:"
    INDEX 01 12:08:25
  TRACK 540 AUDIO
    TITLE "15:cjc171_03770"
    INDEX 01 12:08:54
  TRACK 541 AUDIO
    TITLE "0:"
    INDEX 01 12:10:33
  TRACK 542 AUDIO
    TITLE "11:cjc171_03771"
    INDEX 01 12:11:40
  TRACK 543 AUDIO
    TITLE "0:"
    INDEX 01 12:12:60
  TRACK 544 AUDIO
    TITLE "12:cjc171_03772"
    INDEX 01 12:13:22
  TRACK 545 AUDIO
    TITLE "0:"
    INDEX 01 12:16:08
  TRACK 546 AUDIO
    TITLE "13:cjc171_03773"
    INDEX 01 12:17:08
  TRACK 547 AUDIO
    TITLE "0:"
    INDEX 01 12:19:20
  TRACK 548 AUDIO
    TITLE "14:cjc171_03774"
    INDEX 01 12:19:60
  TRACK 549 AUDIO
    TITLE "0:"
    INDEX 01 12:22:21
  TRACK 550 AUDIO
    TITLE "15:cjc171_03775"
    INDEX 01 12:22:48
  TRACK 551 AUDIO
    TITLE "0:"
    INDEX 01 12:25:07
  TRACK 552 AUDIO
    TITLE "11:cjc171_03776"
    INDEX 01 12:26:09
  TRACK 553 AUDIO
    TITLE "0:"
    INDEX 01 12:27:34
  TRACK 554 AUDIO
    TITLE "12:cjc171_03777"
    INDEX 01 12:27:73
  TRACK 555 AUDIO
    TITLE "0:"
    INDEX 01 12:30:03
  TRACK 556 AUDIO
    TITLE "13:cjc171_03778"
    INDEX 01 12:31:04
  TRACK 557 AUDIO
    TITLE "0:"
    INDEX 01 12:33:26
  TRACK 558 AUDIO
    TITLE "14:cjc171_03779"
    INDEX 01 12:33:64
  TRACK 559 AUDIO
    TITLE "0:"
    INDEX 01 12:36:31
  TRACK 560 AUDIO
    TITLE "15:cjc171_03780"
    INDEX 01 12:36:60
  TRACK 561 AUDIO
    TITLE "0:"
    INDEX 01 12:39:25
  TRACK 562 AUDIO
    TITLE "11:cjc171_03781"
    INDEX 01 12:40:28
  TRACK 563 AUDIO
    TITLE "0:"
    INDEX 01 12:41:55
  TRACK 564 AUDIO
    TITLE "12:cjc171_03782"
    INDEX 01 12:42:19
  TRACK 565 AUDIO
    TITLE "0:"
    INDEX 01 12:45:34
  TRACK 566 AUDIO
    TITLE "13:cjc171_03783"
    INDEX 01 12:46:35
  TRACK 567 AUDIO
    TITLE "0:"
    INDEX 01 12:48:53
  TRACK 568 AUDIO
    TITLE "14:cjc171_03784"
    INDEX 01 12:49:21
  TRACK 569 AUDIO
    TITLE "0:"
    INDEX 01 12:51:52
  TRACK 570 AUDIO
    TITLE "15:cjc171_03785"
    INDEX 01 12:52:06
  TRACK 571 AUDIO
    TITLE "0:"
    INDEX 01 12:54:38
  TRACK 572 AUDIO
    TITLE "11:cjc171_03786"
    INDEX 01 12:55:42
  TRACK 573 AUDIO
    TITLE "0:"
    INDEX 01 12:56:67
  TRACK 574 AUDIO
    TITLE "12:cjc171_03787"
    INDEX 01 12:57:33
  TRACK 575 AUDIO
    TITLE "0:"
    INDEX 01 12:59:73
  TRACK 576 AUDIO
    TITLE "13:cjc171_03788"
    INDEX 01 13:00:70
  TRACK 577 AUDIO
    TITLE "0:"
    INDEX 01 13:03:14
  TRACK 578 AUDIO
    TITLE "14:cjc171_03789"
    INDEX 01 13:03:53
  TRACK 579 AUDIO
    TITLE "0:"
    INDEX 01 13:06:02
  TRACK 580 AUDIO
    TITLE "15:cjc171_03790"
    INDEX 01 13:06:34
  TRACK 581 AUDIO
    TITLE "0:"
    INDEX 01 13:08:60
  TRACK 582 AUDIO
    TITLE "11:cjc171_03791"
    INDEX 01 13:09:67
  TRACK 583 AUDIO
    TITLE "0:"
    INDEX 01 13:11:11
  TRACK 584 AUDIO
    TITLE "12:cjc171_03792"
    INDEX 01 13:11:52
  TRACK 585 AUDIO
    TITLE "0:"
    INDEX 01 13:13:65
  TRACK 586 AUDIO
    TITLE "13:cjc171_03793"
    INDEX 01 13:14:66
  TRACK 587 AUDIO
    TITLE "0:"
    INDEX 01 13:17:26
  TRACK 588 AUDIO
    TITLE "14:cjc171_03794"
    INDEX 01 13:17:57
  TRACK 589 AUDIO
    TITLE "0:"
    INDEX 01 13:20:01
  TRACK 590 AUDIO
    TITLE "15:cjc171_03795"
    INDEX 01 13:20:20
  TRACK 591 AUDIO
    TITLE "0:"
    INDEX 01 13:22:37
  TRACK 592 AUDIO
    TITLE "11:cjc171_03796"
    INDEX 01 13:23:40
  TRACK 593 AUDIO
    TITLE "0:"
    INDEX 01 13:24:71
  TRACK 594 AUDIO
    TITLE "12:cjc171_03797"
    INDEX 01 13:25:37
  TRACK 595 AUDIO
    TITLE "0:"
    INDEX 01 13:28:35
  TRACK 596 AUDIO
    TITLE "13:cjc171_03798"
    INDEX 01 13:29:35
  TRACK 597 AUDIO
    TITLE "0:"
    INDEX 01 13:33:17
  TRACK 598 AUDIO
    TITLE "14:cjc171_03799"
    INDEX 01 13:33:56
  TRACK 599 AUDIO
    TITLE "0:"
    INDEX 01 13:37:58
  TRACK 600 AUDIO
    TITLE "15:cjc171_03800"
    INDEX 01 13:38:12
  TRACK 601 AUDIO
    TITLE "0:"
    INDEX 01 13:42:12
  TRACK 602 AUDIO
    TITLE "11:cjc171_03801"
    INDEX 01 13:43:15
  TRACK 603 AUDIO
    TITLE "0:"
    INDEX 01 13:44:54
  TRACK 604 AUDIO
    TITLE "12:cjc171_03802"
    INDEX 01 13:45:14
  TRACK 605 AUDIO
    TITLE "0:"
    INDEX 01 13:47:70
  TRACK 606 AUDIO
    TITLE "13:cjc171_03803"
    INDEX 01 13:48:69
  TRACK 607 AUDIO
    TITLE "0:"
    INDEX 01 13:50:55
  TRACK 608 AUDIO
    TITLE "14:cjc171_03804"
    INDEX 01 13:51:19
  TRACK 609 AUDIO
    TITLE "0:"
    INDEX 01 13:53:16
  TRACK 610 AUDIO
    TITLE "15:cjc171_03805"
    INDEX 01 13:53:45
  TRACK 611 AUDIO
    TITLE "0:"
    INDEX 01 13:55:40
  TRACK 612 AUDIO
    TITLE "11:cjc171_03806"
    INDEX 01 13:56:45
  TRACK 613 AUDIO
    TITLE "0:"
    INDEX 01 13:57:53
  TRACK 614 AUDIO
    TITLE "12:cjc171_03807"
    INDEX 01 13:58:13
  TRACK 615 AUDIO
    TITLE "0:"
    INDEX 01 13:59:28
  TRACK 616 AUDIO
    TITLE "13:cjc171_03808"
    INDEX 01 14:00:27
  TRACK 617 AUDIO
    TITLE "0:"
    INDEX 01 14:02:67
  TRACK 618 AUDIO
    TITLE "14:cjc171_03809"
    INDEX 01 14:03:32
  TRACK 619 AUDIO
    TITLE "0:"
    INDEX 01 14:06:08
  TRACK 620 AUDIO
    TITLE "15:cjc171_03810"
    INDEX 01 14:06:38
  TRACK 621 AUDIO
    TITLE "0:"
    INDEX 01 14:09:13
  TRACK 622 AUDIO
    TITLE "11:cjc171_03811"
    INDEX 01 14:10:18
  TRACK 623 AUDIO
    TITLE "0:"
    INDEX 01 14:11:37
  TRACK 624 AUDIO
    TITLE "12:cjc171_03812"
    INDEX 01 14:11:70
  TRACK 625 AUDIO
    TITLE "0:"
    INDEX 01 14:13:67
  TRACK 626 AUDIO
    TITLE "13:cjc171_03813"
    INDEX 01 14:14:65
  TRACK 627 AUDIO
    TITLE "0:"
    INDEX 01 14:16:25
  TRACK 628 AUDIO
    TITLE "14:cjc171_03814"
    INDEX 01 14:16:62
  TRACK 629 AUDIO
    TITLE "0:"
    INDEX 01 14:18:63
  TRACK 630 AUDIO
    TITLE "15:cjc171_03815"
    INDEX 01 14:19:15
  TRACK 631 AUDIO
    TITLE "0:"
    INDEX 01 14:21:14
  TRACK 632 AUDIO
    TITLE "11:cjc171_03816"
    INDEX 01 14:22:17
  TRACK 633 AUDIO
    TITLE "0:"
    INDEX 01 14:23:42
  TRACK 634 AUDIO
    TITLE "12:cjc171_03817"
    INDEX 01 14:24:06
  TRACK 635 AUDIO
    TITLE "0:"
    INDEX 01 14:26:19
  TRACK 636 AUDIO
    TITLE "13:cjc171_03818"
    INDEX 01 14:27:16
  TRACK 637 AUDIO
    TITLE "0:"
    INDEX 01 14:28:73
  TRACK 638 AUDIO
    TITLE "14:cjc171_03819"
    INDEX 01 14:29:37
  TRACK 639 AUDIO
    TITLE "0:"
    INDEX 01 14:31:22
  TRACK 640 AUDIO
    TITLE "15:cjc171_03820"
    INDEX 01 14:31:50
  TRACK 641 AUDIO
    TITLE "0:"
    INDEX 01 14:33:33
  TRACK 642 AUDIO
    TITLE "11:cjc171_03821"
    INDEX 01 14:34:38
  TRACK 643 AUDIO
    TITLE "0:"
    INDEX 01 14:35:73
  TRACK 644 AUDIO
    TITLE "12:cjc171_03822"
    INDEX 01 14:36:37
  TRACK 645 AUDIO
    TITLE "0:"
    INDEX 01 14:37:50
  TRACK 646 AUDIO
    TITLE "13:cjc171_03823"
    INDEX 01 14:38:50
  TRACK 647 AUDIO
    TITLE "0:"
    INDEX 01 14:40:11
  TRACK 648 AUDIO
    TITLE "14:cjc171_03824"
    INDEX 01 14:40:50
  TRACK 649 AUDIO
    TITLE "0:"
    INDEX 01 14:42:59
  TRACK 650 AUDIO
    TITLE "15:cjc171_03825"
    INDEX 01 14:43:16
  TRACK 651 AUDIO
    TITLE "0:"
    INDEX 01 14:45:24
  TRACK 652 AUDIO
    TITLE "11:cjc171_03826"
    INDEX 01 14:46:30
  TRACK 653 AUDIO
    TITLE "0:"
    INDEX 01 14:47:31
  TRACK 654 AUDIO
    TITLE "12:cjc171_03827"
    INDEX 01 14:47:70
  TRACK 655 AUDIO
    TITLE "0:"
    INDEX 01 14:49:18
  TRACK 656 AUDIO
    TITLE "13:cjc171_03828"
    INDEX 01 14:50:14
  TRACK 657 AUDIO
    TITLE "0:"
    INDEX 01 14:52:34
  TRACK 658 AUDIO
    TITLE "14:cjc171_03829"
    INDEX 01 14:52:71
  TRACK 659 AUDIO
    TITLE "0:"
    INDEX 01 14:55:13
  TRACK 660 AUDIO
    TITLE "15:cjc171_03830"
    INDEX 01 14:55:42
  TRACK 661 AUDIO
    TITLE "0:"
    INDEX 01 14:57:59
  TRACK 662 AUDIO
    TITLE "11:cjc171_03831"
    INDEX 01 14:58:62
  TRACK 663 AUDIO
    TITLE "0:"
    INDEX 01 15:00:02
  TRACK 664 AUDIO
    TITLE "12:cjc171_03832"
    INDEX 01 15:00:39
  TRACK 665 AUDIO
    TITLE "0:"
    INDEX 01 15:03:32
  TRACK 666 AUDIO
    TITLE "13:cjc171_03833"
    INDEX 01 15:04:29
  TRACK 667 AUDIO
    TITLE "0:"
    INDEX 01 15:06:20
  TRACK 668 AUDIO
    TITLE "14:cjc171_03834"
    INDEX 01 15:06:60
  TRACK 669 AUDIO
    TITLE "0:"
    INDEX 01 15:08:55
  TRACK 670 AUDIO
    TITLE "15:cjc171_03835"
    INDEX 01 15:09:09
  TRACK 671 AUDIO
    TITLE "0:"
    INDEX 01 15:11:04
  TRACK 672 AUDIO
    TITLE "11:cjc171_03836"
    INDEX 01 15:12:09
  TRACK 673 AUDIO
    TITLE "0:"
    INDEX 01 15:13:50
  TRACK 674 AUDIO
    TITLE "12:cjc171_03837"
    INDEX 01 15:14:14
  TRACK 675 AUDIO
    TITLE "0:"
    INDEX 01 15:16:17
  TRACK 676 AUDIO
    TITLE "13:cjc171_03838"
    INDEX 01 15:17:14
  TRACK 677 AUDIO
    TITLE "0:"
    INDEX 01 15:19:52
  TRACK 678 AUDIO
    TITLE "14:cjc171_03839"
    INDEX 01 15:20:17
  TRACK 679 AUDIO
    TITLE "0:"
    INDEX 01 15:22:43
  TRACK 680 AUDIO
    TITLE "15:cjc171_03840"
    INDEX 01 15:22:68
  TRACK 681 AUDIO
    TITLE "0:"
    INDEX 01 15:25:20
  TRACK 682 AUDIO
    TITLE "11:cjc171_03841"
    INDEX 01 15:26:21
  TRACK 683 AUDIO
    TITLE "0:"
    INDEX 01 15:27:40
  TRACK 684 AUDIO
    TITLE "12:cjc171_03842"
    INDEX 01 15:28:01
  TRACK 685 AUDIO
    TITLE "0:"
    INDEX 01 15:30:13
  TRACK 686 AUDIO
    TITLE "13:cjc171_03843"
    INDEX 01 15:31:11
  TRACK 687 AUDIO
    TITLE "0:"
    INDEX 01 15:34:30
  TRACK 688 AUDIO
    TITLE "14:cjc171_03844"
    INDEX 01 15:34:72
  TRACK 689 AUDIO
    TITLE "0:"
    INDEX 01 15:37:33
  TRACK 690 AUDIO
    TITLE "15:cjc171_03845"
    INDEX 01 15:37:62
  TRACK 691 AUDIO
    TITLE "0:"
    INDEX 01 15:40:23
  TRACK 692 AUDIO
    TITLE "11:cjc171_03846"
    INDEX 01 15:41:27
  TRACK 693 AUDIO
    TITLE "0:"
    INDEX 01 15:42:50
  TRACK 694 AUDIO
    TITLE "12:cjc171_03847"
    INDEX 01 15:43:12
  TRACK 695 AUDIO
    TITLE "0:"
    INDEX 01 15:44:31
  TRACK 696 AUDIO
    TITLE "13:cjc171_03848"
    INDEX 01 15:45:30
  TRACK 697 AUDIO
    TITLE "0:"
    INDEX 01 15:47:29
  TRACK 698 AUDIO
    TITLE "14:cjc171_03849"
    INDEX 01 15:47:66
  TRACK 699 AUDIO
    TITLE "0:"
    INDEX 01 15:49:57
  TRACK 700 AUDIO
    TITLE "15:cjc171_03850"
    INDEX 01 15:50:08
  TRACK 701 AUDIO
    TITLE "0:"
    INDEX 01 15:51:70
  TRACK 702 AUDIO
    TITLE "11:cjc171_03851"
    INDEX 01 15:52:72
  TRACK 703 AUDIO
    TITLE "0:"
    INDEX 01 15:54:27
  TRACK 704 AUDIO
    TITLE "12:cjc171_03852"
    INDEX 01 15:54:68
  TRACK 705 AUDIO
    TITLE "0:"
    INDEX 01 15:56:60
  TRACK 706 AUDIO
    TITLE "13:cjc171_03853"
    INDEX 01 15:57:57
  TRACK 707 AUDIO
    TITLE "0:"
    INDEX 01 16:00:12
  TRACK 708 AUDIO
    TITLE "14:cjc171_03854"
    INDEX 01 16:00:46
  TRACK 709 AUDIO
    TITLE "0:"
    INDEX 01 16:03:03
  TRACK 710 AUDIO
    TITLE "15:cjc171_03855"
    INDEX 01 16:03:24
  TRACK 711 AUDIO
    TITLE "0:"
    INDEX 01 16:05:57
  TRACK 712 AUDIO
    TITLE "11:cjc171_03856"
    INDEX 01 16:06:62
  TRACK 713 AUDIO
    TITLE "0:"
    INDEX 01 16:08:06
  TRACK 714 AUDIO
    TITLE "12:cjc171_03857"
    INDEX 01 16:08:45
  TRACK 715 AUDIO
    TITLE "0:"
    INDEX 01 16:10:07
  TRACK 716 AUDIO
    TITLE "13:cjc171_03858"
    INDEX 01 16:11:12
  TRACK 717 AUDIO
    TITLE "0:"
    INDEX 01 16:14:46
  TRACK 718 AUDIO
    TITLE "14:cjc171_03859"
    INDEX 01 16:15:10
  TRACK 719 AUDIO
    TITLE "0:"
    INDEX 01 16:18:28
  TRACK 720 AUDIO
    TITLE "15:cjc171_03860"
    INDEX 01 16:18:55
  TRACK 721 AUDIO
    TITLE "0:"
    INDEX 01 16:21:73
  TRACK 722 AUDIO
    TITLE "11:cjc171_03861"
    INDEX 01 16:22:75
  TRACK 723 AUDIO
    TITLE "0:"
    INDEX 01 16:24:26
  TRACK 724 AUDIO
    TITLE "12:cjc171_03862"
    INDEX 01 16:24:62
  TRACK 725 AUDIO
    TITLE "0:"
    INDEX 01 16:26:23
  TRACK 726 AUDIO
    TITLE "13:cjc171_03863"
    INDEX 01 16:27:25
  TRACK 727 AUDIO
    TITLE "0:"
    INDEX 01 16:29:45
  TRACK 728 AUDIO
    TITLE "14:cjc171_03864"
    INDEX 01 16:30:04
  TRACK 729 AUDIO
    TITLE "0:"
    INDEX 01 16:32:46
  TRACK 730 AUDIO
    TITLE "15:cjc171_03865"
    INDEX 01 16:32:69
  TRACK 731 AUDIO
    TITLE "0:"
    INDEX 01 16:35:38
  TRACK 732 AUDIO
    TITLE "11:cjc171_03866"
    INDEX 01 16:36:41
  TRACK 733 AUDIO
    TITLE "0:"
    INDEX 01 16:37:70
  TRACK 734 AUDIO
    TITLE "12:cjc171_03867"
    INDEX 01 16:38:32
  TRACK 735 AUDIO
    TITLE "0:"
    INDEX 01 16:40:39
  TRACK 736 AUDIO
    TITLE "13:cjc171_03868"
    INDEX 01 16:41:39
  TRACK 737 AUDIO
    TITLE "0:"
    INDEX 01 16:43:12
  TRACK 738 AUDIO
    TITLE "14:cjc171_03869"
    INDEX 01 16:43:47
  TRACK 739 AUDIO
    TITLE "0:"
    INDEX 01 16:45:48
  TRACK 740 AUDIO
    TITLE "15:cjc171_03870"
    INDEX 01 16:45:72
  TRACK 741 AUDIO
    TITLE "0:"
    INDEX 01 16:47:73
  TRACK 742 AUDIO
    TITLE "11:cjc171_03871"
    INDEX 01 16:49:01
  TRACK 743 AUDIO
    TITLE "0:"
    INDEX 01 16:50:10
  TRACK 744 AUDIO
    TITLE "12:cjc171_03872"
    INDEX 01 16:50:59
  TRACK 745 AUDIO
    TITLE "0:"
    INDEX 01 16:53:16
  TRACK 746 AUDIO
    TITLE "13:cjc171_03873"
    INDEX 01 16:54:14
  TRACK 747 AUDIO
    TITLE "0:"
    INDEX 01 16:56:01
  TRACK 748 AUDIO
    TITLE "14:cjc171_03874"
    INDEX 01 16:56:40
  TRACK 749 AUDIO
    TITLE "0:"
    INDEX 01 16:58:66
  TRACK 750 AUDIO
    TITLE "15:cjc171_03875"
    INDEX 01 16:59:17
  TRACK 751 AUDIO
    TITLE "0:"
    INDEX 01 17:01:41
  TRACK 752 AUDIO
    TITLE "11:cjc171_03876"
    INDEX 01 17:02:45
  TRACK 753 AUDIO
    TITLE "0:"
    INDEX 01 17:03:68
  TRACK 754 AUDIO
    TITLE "12:cjc171_03877"
    INDEX 01 17:04:32
  TRACK 755 AUDIO
    TITLE "0:"
    INDEX 01 17:08:06
  TRACK 756 AUDIO
    TITLE "13:cjc171_03878"
    INDEX 01 17:09:08
  TRACK 757 AUDIO
    TITLE "0:"
    INDEX 01 17:11:14
  TRACK 758 AUDIO
    TITLE "14:cjc171_03879"
    INDEX 01 17:11:52
  TRACK 759 AUDIO
    TITLE "0:"
    INDEX 01 17:13:66
  TRACK 760 AUDIO
    TITLE "15:cjc171_03880"
    INDEX 01 17:14:19
  TRACK 761 AUDIO
    TITLE "0:"
    INDEX 01 17:16:33
  TRACK 762 AUDIO
    TITLE "11:cjc171_03881"
    INDEX 01 17:17:36
  TRACK 763 AUDIO
    TITLE "0:"
    INDEX 01 17:19:16
  TRACK 764 AUDIO
    TITLE "12:cjc171_03882"
    INDEX 01 17:19:53
  TRACK 765 AUDIO
    TITLE "0:"
    INDEX 01 17:20:64
  TRACK 766 AUDIO
    TITLE "13:cjc171_03883"
    INDEX 01 17:21:62
  TRACK 767 AUDIO
    TITLE "0:"
    INDEX 01 17:23:21
  TRACK 768 AUDIO
    TITLE "14:cjc171_03884"
    INDEX 01 17:23:61
  TRACK 769 AUDIO
    TITLE "0:"
    INDEX 01 17:25:73
  TRACK 770 AUDIO
    TITLE "15:cjc171_03885"
    INDEX 01 17:26:28
  TRACK 771 AUDIO
    TITLE "0:"
    INDEX 01 17:28:42
  TRACK 772 AUDIO
    TITLE "11:cjc171_03886"
    INDEX 01 17:29:44
  TRACK 773 AUDIO
    TITLE "0:"
    INDEX 01 17:30:57
  TRACK 774 AUDIO
    TITLE "12:cjc171_03887"
    INDEX 01 17:31:19
  TRACK 775 AUDIO
    TITLE "0:"
    INDEX 01 17:32:36
  TRACK 776 AUDIO
    TITLE "13:cjc171_03888"
    INDEX 01 17:33:35
  TRACK 777 AUDIO
    TITLE "0:"
    INDEX 01 17:35:27
  TRACK 778 AUDIO
    TITLE "14:cjc171_03889"
    INDEX 01 17:35:60
  TRACK 779 AUDIO
    TITLE "0:"
    INDEX 01 17:37:51
  TRACK 780 AUDIO
    TITLE "15:cjc171_03890"
    INDEX 01 17:37:74
  TRACK 781 AUDIO
    TITLE "0:"
    INDEX 01 17:39:65
  TRACK 782 AUDIO
    TITLE "11:cjc171_03891"
    INDEX 01 17:40:73
  TRACK 783 AUDIO
    TITLE "0:"
    INDEX 01 17:42:19
  TRACK 784 AUDIO
    TITLE "12:cjc171_03892"
    INDEX 01 17:42:58
  TRACK 785 AUDIO
    TITLE "0:"
    INDEX 01 17:44:04
  TRACK 786 AUDIO
    TITLE "13:cjc171_03893"
    INDEX 01 17:45:03
  TRACK 787 AUDIO
    TITLE "0:"
    INDEX 01 17:47:45
  TRACK 788 AUDIO
    TITLE "14:cjc171_03894"
    INDEX 01 17:48:10
  TRACK 789 AUDIO
    TITLE "0:"
    INDEX 01 17:50:46
  TRACK 790 AUDIO
    TITLE "15:cjc171_03895"
    INDEX 01 17:50:75
  TRACK 791 AUDIO
    TITLE "0:"
    INDEX 01 17:53:34
  TRACK 792 AUDIO
    TITLE "11:cjc171_03896"
    INDEX 01 17:54:40
  TRACK 793 AUDIO
    TITLE "0:"
    INDEX 01 17:55:49
  TRACK 794 AUDIO
    TITLE "12:cjc171_03897"
    INDEX 01 17:56:15
  TRACK 795 AUDIO
    TITLE "0:"
    INDEX 01 17:58:31
  TRACK 796 AUDIO
    TITLE "13:cjc171_03898"
    INDEX 01 17:59:29
  TRACK 797 AUDIO
    TITLE "0:"
    INDEX 01 18:01:42
  TRACK 798 AUDIO
    TITLE "14:cjc171_03899"
    INDEX 01 18:02:08
  TRACK 799 AUDIO
    TITLE "0:"
    INDEX 01 18:04:36
  TRACK 800 AUDIO
    TITLE "15:cjc171_03900"
    INDEX 01 18:04:67
  TRACK 801 AUDIO
    TITLE "0:"
    INDEX 01 18:07:23
  TRACK 802 AUDIO
    TITLE "11:cjc171_03901"
    INDEX 01 18:08:28
  TRACK 803 AUDIO
    TITLE "0:"
    INDEX 01 18:09:43
  TRACK 804 AUDIO
    TITLE "12:cjc171_03902"
    INDEX 01 18:10:07
  TRACK 805 AUDIO
    TITLE "0:"
    INDEX 01 18:12:39
  TRACK 806 AUDIO
    TITLE "13:cjc171_03903"
    INDEX 01 18:13:37
  TRACK 807 AUDIO
    TITLE "0:"
    INDEX 01 18:15:30
  TRACK 808 AUDIO
    TITLE "14:cjc171_03904"
    INDEX 01 18:15:69
  TRACK 809 AUDIO
    TITLE "0:"
    INDEX 01 18:17:72
  TRACK 810 AUDIO
    TITLE "15:cjc171_03905"
    INDEX 01 18:18:26
  TRACK 811 AUDIO
    TITLE "0:"
    INDEX 01 18:20:29
  TRACK 812 AUDIO
    TITLE "11:cjc171_03906"
    INDEX 01 18:21:34
  TRACK 813 AUDIO
    TITLE "0:"
    INDEX 01 18:22:46
  TRACK 814 AUDIO
    TITLE "12:cjc171_03907"
    INDEX 01 18:23:10
  TRACK 815 AUDIO
    TITLE "0:"
    INDEX 01 18:25:66
  TRACK 816 AUDIO
    TITLE "13:cjc171_03908"
    INDEX 01 18:26:67
  TRACK 817 AUDIO
    TITLE "0:"
    INDEX 01 18:29:03
  TRACK 818 AUDIO
    TITLE "14:cjc171_03909"
    INDEX 01 18:29:42
  TRACK 819 AUDIO
    TITLE "0:"
    INDEX 01 18:32:01
  TRACK 820 AUDIO
    TITLE "15:cjc171_03910"
    INDEX 01 18:32:30
  TRACK 821 AUDIO
    TITLE "0:"
    INDEX 01 18:34:63
  TRACK 822 AUDIO
    TITLE "11:cjc171_03911"
    INDEX 01 18:35:68
  TRACK 823 AUDIO
    TITLE "0:"
    INDEX 01 18:37:32
  TRACK 824 AUDIO
    TITLE "12:cjc171_03912"
    INDEX 01 18:37:69
  TRACK 825 AUDIO
    TITLE "0:"
    INDEX 01 18:40:28
  TRACK 826 AUDIO
    TITLE "13:cjc171_03913"
    INDEX 01 18:41:23
  TRACK 827 AUDIO
    TITLE "0:"
    INDEX 01 18:43:60
  TRACK 828 AUDIO
    TITLE "14:cjc171_03914"
    INDEX 01 18:44:26
  TRACK 829 AUDIO
    TITLE "0:"
    INDEX 01 18:46:54
  TRACK 830 AUDIO
    TITLE "15:cjc171_03915"
    INDEX 01 18:47:04
  TRACK 831 AUDIO
    TITLE "0:"
    INDEX 01 18:49:35
  TRACK 832 AUDIO
    TITLE "11:cjc171_03916"
    INDEX 01 18:50:36
  TRACK 833 AUDIO
    TITLE "0:"
    INDEX 01 18:51:51
  TRACK 834 AUDIO
    TITLE "12:cjc171_03917"
    INDEX 01 18:52:08
  TRACK 835 AUDIO
    TITLE "0:"
    INDEX 01 18:56:15
  TRACK 836 AUDIO
    TITLE "13:cjc171_03918"
    INDEX 01 18:57:13
  TRACK 837 AUDIO
    TITLE "0:"
    INDEX 01 18:59:27
  TRACK 838 AUDIO
    TITLE "14:cjc171_03919"
    INDEX 01 18:59:64
  TRACK 839 AUDIO
    TITLE "0:"
    INDEX 01 19:01:67
  TRACK 840 AUDIO
    TITLE "15:cjc171_03920"
    INDEX 01 19:02:22
  TRACK 841 AUDIO
    TITLE "0:"
    INDEX 01 19:04:24
  TRACK 842 AUDIO
    TITLE "11:cjc171_03921"
    INDEX 01 19:05:30
  TRACK 843 AUDIO
    TITLE "0:"
    INDEX 01 19:06:37
  TRACK 844 AUDIO
    TITLE "12:cjc171_03922"
    INDEX 01 19:07:09
  TRACK 845 AUDIO
    TITLE "0:"
    INDEX 01 19:09:22
  TRACK 846 AUDIO
    TITLE "13:cjc171_03923"
    INDEX 01 19:10:17
  TRACK 847 AUDIO
    TITLE "0:"
    INDEX 01 19:11:60
  TRACK 848 AUDIO
    TITLE "14:cjc171_03924"
    INDEX 01 19:12:22
  TRACK 849 AUDIO
    TITLE "0:"
    INDEX 01 19:14:15
  TRACK 850 AUDIO
    TITLE "15:cjc171_03925"
    INDEX 01 19:14:44
  TRACK 851 AUDIO
    TITLE "0:"
    INDEX 01 19:16:34
  TRACK 852 AUDIO
    TITLE "11:cjc171_03926"
    INDEX 01 19:17:37
  TRACK 853 AUDIO
    TITLE "0:"
    INDEX 01 19:18:58
  TRACK 854 AUDIO
    TITLE "12:cjc171_03927"
    INDEX 01 19:19:24
  TRACK 855 AUDIO
    TITLE "0:"
    INDEX 01 19:20:63
  TRACK 856 AUDIO
    TITLE "13:cjc171_03928"
    INDEX 01 19:21:62
  TRACK 857 AUDIO
    TITLE "0:"
    INDEX 01 19:24:37
  TRACK 858 AUDIO
    TITLE "14:cjc171_03929"
    INDEX 01 19:24:74
  TRACK 859 AUDIO
    TITLE "0:"
    INDEX 01 19:27:18
  TRACK 860 AUDIO
    TITLE "15:cjc171_03930"
    INDEX 01 19:27:47
  TRACK 861 AUDIO
    TITLE "0:"
    INDEX 01 19:29:66
  TRACK 862 AUDIO
    TITLE "11:cjc171_03931"
    INDEX 01 19:30:69
  TRACK 863 AUDIO
    TITLE "0:"
    INDEX 01 19:32:07
  TRACK 864 AUDIO
    TITLE "12:cjc171_03932"
    INDEX 01 19:32:46
  TRACK 865 AUDIO
    TITLE "0:"
    INDEX 01 19:34:59
  TRACK 866 AUDIO
    TITLE "13:cjc171_03933"
    INDEX 01 19:35:56
  TRACK 867 AUDIO
    TITLE "0:"
    INDEX 01 19:37:53
  TRACK 868 AUDIO
    TITLE "14:cjc171_03934"
    INDEX 01 19:38:18
  TRACK 869 AUDIO
    TITLE "0:"
    INDEX 01 19:40:46
  TRACK 870 AUDIO
    TITLE "15:cjc171_03935"
    INDEX 01 19:40:75
  TRACK 871 AUDIO
    TITLE "0:"
    INDEX 01 19:43:28
  TRACK 872 AUDIO
    TITLE "11:cjc171_03936"
    INDEX 01 19:44:34
  TRACK 873 AUDIO
    TITLE "0:"
    INDEX 01 19:45:41
  TRACK 874 AUDIO
    TITLE "12:cjc171_03937"
    INDEX 01 19:46:07
  TRACK 875 AUDIO
    TITLE "0:"
    INDEX 01 19:48:37
  TRACK 876 AUDIO
    TITLE "13:cjc171_03938"
    INDEX 01 19:49:37
  TRACK 877 AUDIO
    TITLE "0:"
    INDEX 01 19:52:06
  TRACK 878 AUDIO
    TITLE "14:cjc171_03939"
    INDEX 01 19:52:45
  TRACK 879 AUDIO
    TITLE "0:"
    INDEX 01 19:54:75
  TRACK 880 AUDIO
    TITLE "15:cjc171_03940"
    INDEX 01 19:55:30
  TRACK 881 AUDIO
    TITLE "0:"
    INDEX 01 19:57:62
  TRACK 882 AUDIO
    TITLE "11:cjc171_03941"
    INDEX 01 19:58:65
  TRACK 883 AUDIO
    TITLE "0:"
    INDEX 01 20:00:11
  TRACK 884 AUDIO
    TITLE "12:cjc171_03942"
    INDEX 01 20:00:50
  TRACK 885 AUDIO
    TITLE "0:"
    INDEX 01 20:03:53
  TRACK 886 AUDIO
    TITLE "13:cjc171_03943"
    INDEX 01 20:04:52
  TRACK 887 AUDIO
    TITLE "0:"
    INDEX 01 20:07:11
  TRACK 888 AUDIO
    TITLE "14:cjc171_03944"
    INDEX 01 20:07:51
  TRACK 889 AUDIO
    TITLE "0:"
    INDEX 01 20:09:57
  TRACK 890 AUDIO
    TITLE "15:cjc171_03945"
    INDEX 01 20:10:12
  TRACK 891 AUDIO
    TITLE "0:"
    INDEX 01 20:12:20
  TRACK 892 AUDIO
    TITLE "11:cjc171_03946"
    INDEX 01 20:13:26
  TRACK 893 AUDIO
    TITLE "0:"
    INDEX 01 20:14:37
  TRACK 894 AUDIO
    TITLE "12:cjc171_03947"
    INDEX 01 20:15:01
  TRACK 895 AUDIO
    TITLE "0:"
    INDEX 01 20:17:41
  TRACK 896 AUDIO
    TITLE "13:cjc171_03948"
    INDEX 01 20:18:42
  TRACK 897 AUDIO
    TITLE "0:"
    INDEX 01 20:20:49
  TRACK 898 AUDIO
    TITLE "14:cjc171_03949"
    INDEX 01 20:21:15
  TRACK 899 AUDIO
    TITLE "0:"
    INDEX 01 20:23:26
  TRACK 900 AUDIO
    TITLE "15:cjc171_03950"
    INDEX 01 20:23:55
  TRACK 901 AUDIO
    TITLE "0:"
    INDEX 01 20:25:66
  TRACK 902 AUDIO
    TITLE "11:cjc171_03951"
    INDEX 01 20:26:66
  TRACK 903 AUDIO
    TITLE "0:"
    INDEX 01 20:28:17
  TRACK 904 AUDIO
    TITLE "12:cjc171_03952"
    INDEX 01 20:28:53
  TRACK 905 AUDIO
    TITLE "0:"
    INDEX 01 20:31:39
  TRACK 906 AUDIO
    TITLE "13:cjc171_03953"
    INDEX 01 20:32:39
  TRACK 907 AUDIO
    TITLE "0:"
    INDEX 01 20:34:65
  TRACK 908 AUDIO
    TITLE "14:cjc171_03954"
    INDEX 01 20:35:25
  TRACK 909 AUDIO
    TITLE "0:"
    INDEX 01 20:37:61
  TRACK 910 AUDIO
    TITLE "15:cjc171_03955"
    INDEX 01 20:38:08
  TRACK 911 AUDIO
    TITLE "0:"
    INDEX 01 20:40:44
  TRACK 912 AUDIO
    TITLE "11:cjc171_03956"
    INDEX 01 20:41:40
  TRACK 913 AUDIO
    TITLE "0:"
    INDEX 01 20:42:70
  TRACK 914 AUDIO
    TITLE "12:cjc171_03957"
    INDEX 01 20:43:33
  TRACK 915 AUDIO
    TITLE "0:"
    INDEX 01 20:46:68
  TRACK 916 AUDIO
    TITLE "13:cjc171_03958"
    INDEX 01 20:47:70
  TRACK 917 AUDIO
    TITLE "0:"
    INDEX 01 20:49:74
  TRACK 918 AUDIO
    TITLE "14:cjc171_03959"
    INDEX 01 20:50:35
  TRACK 919 AUDIO
    TITLE "0:"
    INDEX 01 20:52:51
  TRACK 920 AUDIO
    TITLE "15:cjc171_03960"
    INDEX 01 20:52:69
  TRACK 921 AUDIO
    TITLE "0:"
    INDEX 01 20:55:14
  TRACK 922 AUDIO
    TITLE "11:cjc171_03961"
    INDEX 01 20:56:16
  TRACK 923 AUDIO
    TITLE "0:"
    INDEX 01 20:57:31
  TRACK 924 AUDIO
    TITLE "12:cjc171_03962"
    INDEX 01 20:57:70
  TRACK 925 AUDIO
    TITLE "0:"
    INDEX 01 21:00:19
  TRACK 926 AUDIO
    TITLE "13:cjc171_03963"
    INDEX 01 21:01:21
  TRACK 927 AUDIO
    TITLE "0:"
    INDEX 01 21:03:35
  TRACK 928 AUDIO
    TITLE "14:cjc171_03964"
    INDEX 01 21:03:75
  TRACK 929 AUDIO
    TITLE "0:"
    INDEX 01 21:06:40
  TRACK 930 AUDIO
    TITLE "15:cjc171_03965"
    INDEX 01 21:06:73
  TRACK 931 AUDIO
    TITLE "0:"
    INDEX 01 21:09:34
  TRACK 932 AUDIO
    TITLE "11:cjc171_03966"
    INDEX 01 21:10:39
  TRACK 933 AUDIO
    TITLE "0:"
    INDEX 01 21:11:62
  TRACK 934 AUDIO
    TITLE "12:cjc171_03967"
    INDEX 01 21:12:28
  TRACK 935 AUDIO
    TITLE "0:"
    INDEX 01 21:15:03
  TRACK 936 AUDIO
    TITLE "13:cjc171_03968"
    INDEX 01 21:16:03
  TRACK 937 AUDIO
    TITLE "0:"
    INDEX 01 21:19:01
  TRACK 938 AUDIO
    TITLE "14:cjc171_03969"
    INDEX 01 21:19:32
  TRACK 939 AUDIO
    TITLE "0:"
    INDEX 01 21:22:44
  TRACK 940 AUDIO
    TITLE "15:cjc171_03970"
    INDEX 01 21:22:68
  TRACK 941 AUDIO
    TITLE "0:"
    INDEX 01 21:26:01
  TRACK 942 AUDIO
    TITLE "11:cjc171_03971"
    INDEX 01 21:26:72
  TRACK 943 AUDIO
    TITLE "0:"
    INDEX 01 21:28:08
  TRACK 944 AUDIO
    TITLE "12:cjc171_03972"
    INDEX 01 21:28:43
  TRACK 945 AUDIO
    TITLE "0:"
    INDEX 01 21:31:16
  TRACK 946 AUDIO
    TITLE "13:cjc171_03973"
    INDEX 01 21:32:15
  TRACK 947 AUDIO
    TITLE "0:"
    INDEX 01 21:34:59
  TRACK 948 AUDIO
    TITLE "14:cjc171_03974"
    INDEX 01 21:35:26
  TRACK 949 AUDIO
    TITLE "0:"
    INDEX 01 21:38:04
  TRACK 950 AUDIO
    TITLE "15:cjc171_03975"
    INDEX 01 21:38:34
  TRACK 951 AUDIO
    TITLE "0:"
    INDEX 01 21:41:12
  TRACK 952 AUDIO
    TITLE "11:cjc171_03976"
    INDEX 01 21:42:10
  TRACK 953 AUDIO
    TITLE "0:"
    INDEX 01 21:43:21
  TRACK 954 AUDIO
    TITLE "12:cjc171_03977"
    INDEX 01 21:43:60
  TRACK 955 AUDIO
    TITLE "0:"
    INDEX 01 21:46:27
  TRACK 956 AUDIO
    TITLE "13:cjc171_03978"
    INDEX 01 21:47:29
  TRACK 957 AUDIO
    TITLE "0:"
    INDEX 01 21:49:41
  TRACK 958 AUDIO
    TITLE "14:cjc171_03979"
    INDEX 01 21:49:75
  TRACK 959 AUDIO
    TITLE "0:"
    INDEX 01 21:52:18
  TRACK 960 AUDIO
    TITLE "15:cjc171_03980"
    INDEX 01 21:52:42
  TRACK 961 AUDIO
    TITLE "0:"
    INDEX 01 21:54:62
  TRACK 962 AUDIO
    TITLE "11:cjc171_03981"
    INDEX 01 21:55:65
  TRACK 963 AUDIO
    TITLE "0:"
    INDEX 01 21:57:08
  TRACK 964 AUDIO
    TITLE "12:cjc171_03982"
    INDEX 01 21:57:43
  TRACK 965 AUDIO
    TITLE "0:"
    INDEX 01 22:00:18
  TRACK 966 AUDIO
    TITLE "13:cjc171_03983"
    INDEX 01 22:01:17
  TRACK 967 AUDIO
    TITLE "0:"
    INDEX 01 22:03:32
  TRACK 968 AUDIO
    TITLE "14:cjc171_03984"
    INDEX 01 22:03:65
  TRACK 969 AUDIO
    TITLE "0:"
    INDEX 01 22:06:12
  TRACK 970 AUDIO
    TITLE "15:cjc171_03985"
    INDEX 01 22:06:32
  TRACK 971 AUDIO
    TITLE "0:"
    INDEX 01 22:08:54
  TRACK 972 AUDIO
    TITLE "11:cjc171_03986"
    INDEX 01 22:09:54
  TRACK 973 AUDIO
    TITLE "0:"
    INDEX 01 22:11:14
  TRACK 974 AUDIO
    TITLE "12:cjc171_03987"
    INDEX 01 22:11:53
  TRACK 975 AUDIO
    TITLE "0:"
    INDEX 01 22:14:61
  TRACK 976 AUDIO
    TITLE "13:cjc171_03988"
    INDEX 01 22:15:60
  TRACK 977 AUDIO
    TITLE "0:"
    INDEX 01 22:18:51
  TRACK 978 AUDIO
    TITLE "14:cjc171_03989"
    INDEX 01 22:19:15
  TRACK 979 AUDIO
    TITLE "0:"
    INDEX 01 22:21:35
  TRACK 980 AUDIO
    TITLE "15:cjc171_03990"
    INDEX 01 22:21:65
  TRACK 981 AUDIO
    TITLE "0:"
    INDEX 01 22:24:12
  TRACK 982 AUDIO
    TITLE "11:cjc171_03991"
    INDEX 01 22:25:16
  TRACK 983 AUDIO
    TITLE "0:"
    INDEX 01 22:26:39
  TRACK 984 AUDIO
    TITLE "12:cjc171_03992"
    INDEX 01 22:27:07
  TRACK 985 AUDIO
    TITLE "0:"
    INDEX 01 22:29:60
  TRACK 986 AUDIO
    TITLE "13:cjc171_03993"
    INDEX 01 22:30:60
  TRACK 987 AUDIO
    TITLE "0:"
    INDEX 01 22:33:33
  TRACK 988 AUDIO
    TITLE "14:cjc171_03994"
    INDEX 01 22:33:72
  TRACK 989 AUDIO
    TITLE "0:"
    INDEX 01 22:36:49
  TRACK 990 AUDIO
    TITLE "15:cjc171_03995"
    INDEX 01 22:37:03
  TRACK 991 AUDIO
    TITLE "0:"
    INDEX 01 22:39:53
  TRACK 992 AUDIO
    TITLE "11:cjc171_03996"
    INDEX 01 22:40:56
  TRACK 993 AUDIO
    TITLE "0:"
    INDEX 01 22:41:73
  TRACK 994 AUDIO
    TITLE "12:cjc171_03997"
    INDEX 01 22:42:32
  TRACK 995 AUDIO
    TITLE "0:"
    INDEX 01 22:43:74
  TRACK 996 AUDIO
    TITLE "13:cjc171_03998"
    INDEX 01 22:45:01
  TRACK 997 AUDIO
    TITLE "0:"
    INDEX 01 22:47:39
  TRACK 998 AUDIO
    TITLE "14:cjc171_03999"
    INDEX 01 22:48:05
  TRACK 999 AUDIO
    TITLE "0:"
    INDEX 01 22:50:49
  TRACK 1000 AUDIO
    TITLE "15:cjc171_04000"
    INDEX 01 22:51:07
  TRACK 1001 AUDIO
    TITLE "0:"
    INDEX 01 22:53:49
